<svg width="532" height="374" viewBox="0 0 532 374" fill="none" xmlns="http://www.w3.org/2000/svg">
<path fill-rule="evenodd" clip-rule="evenodd" d="M395.385 0.95323C394.909 1.4288 385.239 2.06288 374.143 2.53845C351.474 3.33105 349.731 3.48969 347.036 5.23343C345.768 6.02604 344.975 5.86744 344.975 4.75779C344.975 3.80666 343.231 3.48961 340.695 3.96518C328.33 6.18448 282.517 7.92818 228.937 8.0867C198.184 8.24522 183.6 8.87946 184.393 9.83059C185.027 10.9402 183.441 11.2572 179.954 10.7817C177.101 10.3061 172.345 10.9402 169.492 12.2084C166.48 13.3181 162.358 13.7936 160.139 13.318C157.919 12.6839 154.59 13.001 152.688 13.7936C148.567 15.6959 121.618 21.8781 112.741 22.9878C109.253 23.3048 102.12 24.4145 96.8886 25.2071C88.6455 26.6338 62.965 28.5361 49.6492 28.8532C47.2714 28.8532 45.3691 29.6458 45.3691 30.4384C45.3691 31.231 43.9424 31.3894 42.0401 30.9138C40.2964 30.2798 36.8089 30.5968 34.5896 31.548C32.2118 32.4991 28.5658 33.6088 26.3465 33.9258C24.1272 34.2428 22.542 35.3525 22.859 36.3036C23.0176 37.2547 21.7494 38.0473 20.0056 38.0473C18.2619 38.0473 16.8352 39.157 16.8352 40.4251C16.8352 41.8518 15.8841 42.3275 14.1404 41.6934C12.2381 40.9008 11.921 41.2178 12.8722 42.803C13.8233 44.3882 13.3477 44.7053 10.8114 44.0712C8.90913 43.4371 7.32392 43.7541 7.32392 44.5467C7.32392 45.3393 6.37279 45.815 5.42166 45.6564C4.15349 45.3394 3.36088 46.6076 3.5194 48.6684C3.5194 50.5706 2.88531 51.6803 2.09271 51.2047C1.14158 50.7291 0.824532 54.058 1.3001 60.0819C1.61714 65.4716 1.3001 69.7516 0.507489 69.7516C-0.285119 69.7516 -0.126596 70.7028 0.824533 71.8125C1.77566 73.0807 2.25123 74.3487 1.77566 74.6658C0.66601 75.9339 4.31201 87.8231 6.68983 90.3594C8.27505 92.2617 8.59209 97.9685 8.11652 115.723C6.84835 160.585 6.84836 175.486 7.79949 177.071C8.43357 178.022 8.43357 181.985 7.95801 185.79C6.37279 197.52 6.05575 207.665 7.48244 206.714C8.27505 206.239 8.90913 206.714 8.90913 207.507C8.90913 208.458 8.27505 209.251 7.64096 209.251C5.7387 209.251 5.58018 216.86 7.32392 217.969C8.27505 218.603 8.43357 219.872 7.79949 220.823C7.1654 221.774 6.53131 230.334 6.21427 239.687C6.05575 249.198 5.42166 257.6 4.94609 258.234C4.47053 259.026 5.10462 259.978 6.05574 260.453C7.64096 260.929 7.64096 261.563 6.05574 263.465C4.62905 265.367 4.47053 266.318 5.7387 267.111C7.00687 267.904 7.32392 271.708 6.84835 278.366C6.37279 283.914 6.68983 288.828 7.48244 289.462C8.27505 289.938 8.59209 291.048 7.95801 291.84C7.48244 292.633 7.79948 294.377 8.90913 295.645C9.86026 296.755 10.0188 298.181 9.22618 298.657C8.59209 298.974 8.75061 305.315 9.86027 312.607C12.5551 331.788 13.8233 336.068 16.3596 336.068C17.6278 336.068 18.4204 336.861 18.1034 337.97C17.3108 340.031 26.6636 350.018 33.1629 354.298C35.6993 355.883 37.443 356.359 37.443 355.249C37.443 354.298 38.2356 353.505 39.1868 353.505C39.9794 353.505 40.4549 354.139 39.9794 354.932C39.5038 355.725 40.1379 357.151 41.4061 358.261C43.4668 360.005 43.6254 359.846 42.9913 357.944C42.5157 356.676 43.1498 354.615 44.5765 353.505C46.6373 351.762 46.7958 351.92 46.0032 354.139C44.735 357.468 48.064 361.432 52.344 361.432C54.7219 361.432 55.0389 360.956 53.4537 360.005C52.027 359.053 51.8685 358.261 53.1367 357.627C54.0878 356.993 54.8804 357.31 54.8804 358.261C54.8804 359.371 55.99 359.688 57.4167 359.212C59.636 358.419 59.7946 358.578 58.2093 360.48C56.7826 362.224 57.2582 363.017 60.7457 364.126C67.0866 366.029 73.903 364.919 72.7933 362.065C72.3178 360.797 72.9519 359.846 74.3786 359.846C75.6467 359.846 77.2319 360.956 77.7075 362.382C78.1831 363.651 78.0245 364.285 77.0734 363.809C76.1223 363.334 75.4882 363.968 75.4882 365.395C75.4882 367.297 76.2808 367.772 78.0245 367.138C79.4512 366.504 81.6705 366.98 83.0972 368.089C85.158 369.833 85.3165 369.516 84.3654 365.395C82.7802 358.737 81.6705 357.944 73.2689 357.944C69.3059 357.944 65.9769 357.468 65.9769 356.676C65.9769 356.042 64.5502 355.725 62.8065 356.2C61.0627 356.676 59.636 356.359 59.636 355.408C59.636 354.457 62.8065 353.822 66.7695 353.822C70.7326 353.981 73.903 354.615 73.903 355.408C73.903 356.2 74.5371 356.517 75.3297 356.042C76.1223 355.407 78.8171 355.883 81.195 356.676C84.3654 357.944 85.7921 357.944 86.7432 356.517C87.6944 354.932 88.487 354.932 90.3892 356.517C92.2915 358.102 94.0352 358.103 97.5227 356.993C101.327 355.725 102.437 355.883 103.071 357.785C104.181 360.639 102.912 363.017 100.059 363.017C98.9494 363.017 97.5227 363.968 97.0471 364.919C96.5716 366.029 96.5716 365.394 97.0471 363.492C97.6812 360.322 97.2057 360.005 91.6574 360.163C86.7432 360.163 85.4751 360.797 85.7921 362.858C86.1091 364.285 86.4262 366.029 86.4262 366.98C86.5847 367.772 90.0722 368.565 94.5108 368.723C98.7909 368.882 102.12 368.248 101.961 367.297C101.803 366.504 103.388 365.553 105.607 365.236C108.038 364.919 108.461 365.447 106.875 366.821C103.071 369.674 103.229 371.418 107.034 369.358C108.778 368.565 111.473 368.248 113.058 368.723C115.119 369.357 115.277 369.199 113.85 368.089C112.107 366.98 112.424 366.504 115.119 365.712C117.338 365.236 119.557 366.028 121.777 368.248C124.471 371.101 124.947 371.101 124.154 369.04C123.52 367.455 123.837 366.187 124.63 366.187C125.581 366.187 126.215 367.138 126.374 368.089C126.374 369.199 127.008 368.724 127.642 366.98C128.487 364.972 129.544 365.13 130.812 367.455C133.032 371.577 139.055 372.052 142.067 368.565C143.177 367.297 145.238 366.345 146.664 366.345C148.725 366.504 148.725 366.663 146.506 367.297C144.921 367.614 143.652 368.723 143.652 369.516C143.652 372.052 146.664 370.943 149.359 367.297L151.896 363.809L151.103 367.297C150.469 370.309 150.786 370.626 153.164 369.358C154.59 368.565 156.493 368.406 157.127 369.04C157.919 369.674 157.919 369.199 157.285 368.089C156.493 366.821 157.285 366.187 159.346 366.187C161.248 366.187 162.675 366.98 162.675 367.931C162.675 369.199 163.468 369.04 165.211 367.614C167.906 365.394 175.674 364.602 176.942 366.504C177.418 367.138 179.795 366.663 182.173 365.395C185.819 363.492 186.612 363.492 187.721 365.712C188.831 367.455 191.05 367.931 196.599 367.614C200.562 367.297 203.891 367.455 203.891 368.089C203.891 369.833 205.793 369.675 208.646 367.772C210.707 366.346 210.39 365.553 206.744 362.382C203.257 359.371 202.94 358.419 204.842 357.627C206.269 357.151 206.744 357.468 206.269 358.261C205.793 359.212 205.951 359.846 206.903 359.846C207.695 359.846 208.963 359.054 209.439 358.261C209.915 357.31 212.134 356.676 214.353 356.676C216.414 356.676 218.158 356.2 218.158 355.408C218.158 354.774 219.901 354.298 222.121 354.298C224.974 354.298 226.084 355.091 226.084 357.31C226.084 359.846 225.608 360.005 224.181 358.578C221.804 356.2 219.109 356.042 220.535 358.261C221.011 359.054 220.377 359.846 218.95 359.846C217.524 359.846 216.731 360.48 217.365 361.273C217.841 362.065 217.524 363.334 216.572 363.809C215.621 364.443 214.987 364.285 215.146 363.492C215.78 360.005 214.67 358.578 211.817 359.371C210.073 359.846 208.646 360.956 208.646 361.749C208.646 362.541 209.28 362.858 210.073 362.382C210.866 361.907 212.292 362.541 213.402 363.809C215.146 366.029 215.78 366.028 217.999 363.968C219.584 362.541 221.487 362.065 222.596 362.858C223.864 363.492 227.193 363.809 230.364 363.492C234.485 363.016 235.595 363.334 234.644 364.919C233.693 366.504 234.01 366.504 236.071 364.919C237.497 363.651 239.4 363.334 240.509 363.968C241.619 364.602 245.74 365.236 250.02 365.395C255.727 365.712 257.312 365.236 256.678 363.651C256.203 362.383 256.837 361.432 258.422 361.432C260.007 361.432 260.641 362.383 260.007 364.126C259.215 366.663 259.373 366.821 261.275 364.443C262.544 362.858 264.604 362.224 266.507 362.858C269.36 363.809 271.896 363.968 282.834 363.175C284.737 363.175 286.322 361.907 286.322 360.639C286.322 358.261 288.066 357.627 292.346 358.102C293.614 358.261 295.358 357.785 296.467 356.834C298.211 355.249 302.65 356.834 302.333 358.895C302.174 359.371 302.491 359.846 302.967 359.846H307.564C310.417 359.846 311.368 359.053 311.368 356.042C311.368 353.822 310.259 351.762 308.991 351.128C307.405 350.652 306.93 350.969 307.405 352.554C308.356 355.091 301.381 355.566 296.943 353.188C294.882 352.078 292.98 352.396 290.126 354.298C287.273 356.042 286.322 356.2 286.322 354.773C286.322 353.347 285.846 353.505 284.578 355.091C283.31 356.993 283.151 356.676 283.944 353.981C284.42 352.078 284.103 350.176 283.151 349.542C282.359 349.067 281.566 349.859 281.566 351.762C281.566 353.505 280.14 355.249 278.396 355.883C276.652 356.359 275.225 357.944 275.225 359.212C275.225 360.48 274.116 361.432 272.848 361.432C271.579 361.432 270.47 360.322 270.47 359.054C270.47 357.627 269.519 357.151 267.775 357.785C266.031 358.42 265.556 358.261 266.348 356.993C266.982 355.883 266.824 355.091 265.873 355.091C265.08 355.091 263.97 356.042 263.653 356.993C263.019 358.578 262.702 358.578 262.702 356.993C262.544 355.883 261.91 355.408 260.958 355.883C260.166 356.359 259.373 356.2 259.373 355.249C259.373 352.713 262.227 351.762 263.019 353.822C263.812 355.725 264.763 351.128 264.287 348.274C264.129 347.482 264.763 347.323 265.556 347.957C266.507 348.433 266.665 350.018 266.19 351.445C265.556 353.188 265.873 353.664 267.458 353.188C268.726 352.713 269.519 351.286 269.519 349.859C269.36 348.433 269.994 347.64 270.787 348.115C271.579 348.75 272.055 350.81 271.579 352.871C271.262 354.773 271.421 357.31 272.055 358.261C272.689 359.371 273.64 357.944 274.274 354.932C275.542 347.957 278.079 345.262 281.408 347.006C282.834 347.799 284.737 348.75 285.529 349.067C286.48 349.225 286.956 350.018 286.797 350.652C286.48 351.286 287.432 351.445 288.7 350.969C289.968 350.335 291.078 348.908 291.078 347.482C291.078 345.421 291.712 345.738 293.614 348.433C294.882 350.335 296.626 351.603 297.418 351.128C298.053 350.652 299.004 350.969 299.321 351.92C299.638 352.871 301.54 352.395 303.759 350.81C305.979 349.225 309.149 348.116 310.893 348.274C312.584 348.38 312.742 348.221 311.368 347.799C308.515 347.006 307.247 343.994 309.783 343.994C312.161 343.994 314.38 346.53 315.49 349.859C316.6 353.347 321.197 355.091 321.197 351.92C321.197 350.969 322.623 350.969 324.843 351.603C326.745 352.395 330.708 352.713 333.561 352.395C336.415 352.237 338.475 352.554 338 353.347C337.524 354.139 338.159 355.091 339.427 355.725C340.695 356.2 342.122 355.883 342.597 355.091C343.231 354.14 342.914 353.505 341.963 353.505C340.536 353.505 338.476 349.225 337.683 344.311C337.366 342.567 337.683 342.567 339.902 344.311C341.329 345.421 341.963 345.579 341.329 344.628C340.536 343.201 342.914 342.726 348.938 342.567C353.694 342.567 358.925 341.775 360.51 340.982C362.254 340.031 364.315 340.031 366.058 340.982C370.338 343.36 369.387 345.738 364.79 343.994C360.986 342.567 357.657 344.47 360.827 346.372C361.62 346.847 362.412 346.847 362.412 346.055C362.412 345.421 363.046 345.738 363.839 347.006C365.741 350.018 370.655 347.957 370.18 344.47C369.704 338.921 370.338 337.653 373.984 337.812C377.313 337.812 377.313 337.97 374.301 339.397C372.082 340.348 373.826 340.507 379.533 339.872C384.922 339.238 387.776 339.555 387.776 340.665C387.776 341.616 388.885 342.409 390.312 342.409C392.531 342.409 392.531 341.933 390.946 340.031C389.202 337.97 389.678 337.653 393.482 337.653C396.653 337.653 397.446 337.177 396.019 336.226C394.434 335.275 394.751 334.641 397.604 334.007C399.506 333.373 401.567 333.69 401.726 334.483C402.043 335.434 403.311 336.068 404.579 336.068C406.164 336.068 406.481 335.275 405.847 334.007C405.055 332.898 405.847 333.056 407.591 334.483C409.652 336.068 410.603 336.226 411.078 335.117C411.395 334.007 413.298 333.69 415.2 334.166C418.37 334.958 418.529 334.8 416.31 331.946C414.249 329.251 414.249 329.093 416.31 330.837C419.005 332.898 425.345 332.739 428.833 330.678C430.101 329.885 431.369 330.203 432.162 331.471C433.113 332.897 434.064 333.056 435.649 331.788C436.759 330.837 440.722 330.203 444.368 330.361C448.014 330.52 450.867 330.044 450.709 329.252C450.55 328.459 452.453 327.666 454.989 327.508C457.367 327.349 460.537 325.764 461.805 324.179C463.708 321.801 464.025 321.643 463.391 323.703C462.915 325.13 463.232 326.715 464.342 327.191C465.451 327.508 464.817 327.983 463.232 327.983C461.224 328.089 461.171 328.829 463.074 330.203C465.768 332.263 465.451 332.58 460.537 333.69C454.196 335.117 454.672 335.117 449.599 333.69C446.587 332.897 446.27 333.056 448.014 334.324C450.075 335.751 449.916 336.068 447.538 336.068C445.953 336.068 445.161 336.86 445.636 337.653C446.27 338.763 447.38 338.763 448.49 337.97C451.026 336.068 456.099 336.861 457.684 339.555C458.793 341.141 459.11 340.823 459.11 338.604C459.11 335.751 459.269 335.751 461.964 338.129C463.549 339.714 465.61 340.824 466.402 340.824C467.195 340.824 466.561 340.031 465.134 339.08C463.549 338.287 462.281 336.861 462.281 335.909C462.281 333.69 476.865 335.592 478.292 337.97C479.401 339.555 480.035 339.555 481.621 337.97C483.047 336.544 483.047 335.592 481.621 334.166C480.352 332.898 480.352 331.629 481.621 329.093C483.206 326.081 483.206 325.923 480.669 327.983C479.243 329.251 477.657 329.727 477.023 329.093C476.548 328.617 476.865 328.142 477.975 328.142C479.243 328.142 479.718 326.874 479.243 325.13C478.767 322.911 479.084 322.277 480.669 322.911C483.681 324.02 485.742 328.142 485.267 332.422C485.108 334.324 485.901 336.226 487.169 336.702C488.278 337.178 489.23 336.86 489.23 336.068C489.23 332.897 489.547 332.105 491.29 329.885C492.876 327.983 492.717 327.666 490.498 328.617C488.913 329.093 487.327 328.934 486.852 328.142C486.218 327.191 487.01 326.557 488.278 326.557C489.547 326.557 493.668 323.703 497.314 320.216C500.96 316.728 504.606 313.875 505.24 313.875C510.471 313.875 517.605 306.9 516.654 302.62C516.178 301.035 521.726 301.669 522.836 303.412C523.629 304.522 524.104 304.047 524.104 302.303C524.104 300.401 524.738 299.766 526.165 300.559C527.116 301.193 526.958 300.401 525.531 298.657C523.153 295.645 523.153 290.097 525.69 290.097C526.324 290.097 527.433 288.987 527.909 287.56C528.384 286.134 528.226 285.658 527.116 286.292C526.007 286.926 525.69 285.5 526.324 282.012C526.799 279 526.324 275.671 525.214 274.403C523.787 272.659 523.787 272.342 525.214 273.135C526.324 273.769 527.433 272.976 528.067 271.074C528.701 269.172 529.811 268.379 530.921 268.855C532.03 269.489 531.238 268.221 529.494 266.16C525.69 261.721 523.787 255.697 525.848 254.271C526.641 253.795 527.275 252.527 527.275 251.576C527.275 250.308 526.799 250.308 525.848 251.734C524.738 253.478 524.421 253.478 523.629 251.417C522.995 249.832 523.47 248.881 524.738 248.881C525.848 248.881 527.592 247.93 528.543 246.82C529.97 245.235 529.336 244.759 525.69 245.076C522.995 245.235 520.934 244.759 520.934 243.967C520.934 243.174 522.361 242.54 524.263 242.54C526.482 242.54 527.275 241.747 526.799 240.321C526.324 239.211 526.799 237.309 527.75 236.199C529.177 234.614 529.177 234.297 527.116 235.09C524.421 236.041 524.104 231.602 526.482 223.042C527.433 219.555 527.116 218.762 524.897 218.762C523.312 218.762 522.519 217.811 522.836 215.909C523.153 214.482 524.263 213.372 525.055 213.531C525.848 213.689 526.641 212.421 526.641 210.836C526.641 209.251 525.848 208.3 525.055 208.775C524.263 209.409 523.946 208.617 524.58 207.19C525.055 205.605 524.897 204.495 524.104 204.495C521.885 204.495 522.202 197.045 524.263 195.618C525.531 194.825 525.214 194.033 523.47 193.081C520.934 191.655 519.824 188.484 522.202 188.801C525.214 189.277 526.324 188.484 524.263 187.216C521.409 185.472 520.141 175.327 522.995 176.754C523.946 177.388 523.47 176.595 521.885 175.327C519.771 173.636 519.771 172.738 521.885 172.632C524.58 172.632 524.421 172.474 521.409 171.205C519.349 170.413 517.763 169.303 517.763 168.828C517.763 168.194 518.398 168.194 519.19 168.828C519.983 169.303 521.092 168.986 521.727 168.035C522.202 167.242 521.885 166.45 520.934 166.45C519.983 166.45 519.507 165.816 520.141 165.023C520.617 164.23 520.458 163.121 519.824 162.804C517.763 161.536 518.715 152.024 521.092 150.439C522.995 149.33 522.995 149.012 521.092 149.012C519.349 149.012 519.349 148.378 521.409 146.159C522.995 144.574 524.104 142.513 524.104 141.72C524.104 140.928 523.47 141.245 522.836 142.355C522.044 143.464 520.3 143.94 518.873 143.306C516.971 142.672 516.654 141.562 517.763 138.709C518.556 136.489 518.556 134.587 517.288 133.319C516.02 132.051 516.495 131.575 519.19 131.575C522.361 131.575 522.519 131.258 520.934 129.197C519.824 127.929 519.507 126.819 520.3 126.819C520.934 126.819 520.141 125.71 518.398 124.283C516.812 123.015 516.178 122.222 517.288 122.698C519.983 124.125 521.568 120.479 519.349 118.418C517.763 116.991 517.605 116.991 518.398 118.418C519.032 119.528 518.715 120.479 517.922 120.479C515.069 120.479 516.02 116.04 519.032 115.247C521.251 114.613 521.251 114.455 518.556 114.296C516.02 114.138 515.861 113.821 517.605 112.711C519.507 111.443 519.507 110.809 517.288 108.589C515.703 107.163 514.593 104.468 514.752 102.566V99.0781L516.178 102.566C516.971 104.627 518.081 106.212 518.556 106.212C519.19 106.212 519.032 104.627 518.398 102.566C517.763 100.663 517.288 97.81 517.446 96.3833C517.446 94.7981 516.971 93.2128 516.02 92.7373C515.227 92.1032 515.227 90.518 516.178 88.6157C517.446 86.555 517.288 85.6038 516.178 85.6038C515.227 85.6038 514.752 84.9697 515.386 84.1771C515.861 83.3845 515.544 82.2748 514.593 81.6408C513.642 81.0067 513.325 79.8971 513.8 79.1044C516.02 75.7755 515.861 71.1784 513.642 70.2273C511.581 69.4347 511.581 69.1175 513.8 67.5323C515.227 66.4226 515.703 64.5205 515.227 62.1427C514.435 59.2893 513.8 58.9721 512.057 60.3988C510.63 61.5085 509.837 61.6672 509.837 60.5575C509.837 59.6064 509.362 57.704 508.728 56.1188C507.935 54.058 508.252 53.5825 510.313 54.3751C512.532 55.1677 512.849 54.6922 512.057 51.0462C511.423 48.6684 509.996 45.6564 508.728 44.2297C507.46 42.803 506.667 40.7422 506.984 39.6325C507.301 38.3644 506.033 36.7791 504.289 35.828C500.96 33.9257 499.692 31.0725 500.009 26.4754C500.802 18.5493 501.119 17.4396 502.704 18.0736C503.814 18.3907 503.655 16.8054 502.228 13.4765C500.326 9.51343 498.424 7.92822 494.461 7.13561C491.607 6.66005 489.23 5.70888 489.23 4.91627C489.23 3.01401 479.084 3.80677 476.865 5.86755C474.011 8.56242 472.902 8.40374 458.952 4.91627C452.294 3.17253 442.624 2.06296 436.442 2.22148C430.577 2.22148 425.821 2.06292 425.821 1.58736C425.821 1.11179 422.809 0.477782 419.163 0.477782C414.407 0.160739 413.139 0.636226 414.724 1.58736C416.468 2.69701 415.993 3.17257 412.664 3.17257C410.127 3.17257 408.542 2.53848 409.176 1.58736C410.444 -0.631947 406.323 -0.473464 404.103 1.74584C402.835 3.01401 401.409 3.01401 399.189 1.74584C397.604 0.794709 395.702 0.477666 395.385 0.95323ZM374.301 38.0473C372.082 40.4251 370.814 40.7422 368.278 39.4741C366.058 38.2059 364.79 38.2058 363.998 39.6325C363.205 40.9007 362.412 40.9008 361.778 39.9497C360.351 37.5719 365.424 36.3036 368.912 38.0473C371.765 39.6325 372.558 38.9986 372.082 35.9867C372.082 35.3526 373.033 34.8769 374.618 34.8769C376.996 34.8769 376.838 35.1939 374.301 38.0473ZM386.191 37.4132C386.191 37.7302 385.081 38.0473 383.813 38.0473C382.545 38.0473 381.435 37.4132 381.435 36.4621C381.435 35.6695 382.545 35.3524 383.813 35.828C385.081 36.4621 386.191 37.0962 386.191 37.4132ZM393.324 36.4621C393.8 37.2547 393.165 38.0473 391.739 38.0473C390.312 38.0473 389.678 37.2547 390.154 36.4621C390.629 35.511 391.422 34.8769 391.739 34.8769C392.056 34.8769 392.848 35.511 393.324 36.4621ZM409.176 39.4741C408.701 39.9496 407.591 39.3155 406.798 38.0473C405.689 36.3036 405.213 36.1451 405.213 37.7304C405.213 38.84 404.421 39.3155 403.469 38.6814C402.201 38.0474 402.36 37.2547 403.786 36.3036C406.006 35.0354 410.761 37.7303 409.176 39.4741ZM349.731 38.6814C349.731 39.157 349.096 39.9496 348.145 40.4251C347.353 40.9007 346.56 40.5836 346.56 39.791C346.56 38.8399 347.353 38.0473 348.145 38.0473C349.096 38.0473 349.731 38.3644 349.731 38.6814ZM259.373 41.3762C259.373 42.1688 260.007 42.6444 260.8 42.1688C261.593 41.5348 261.91 42.6444 261.434 44.3882C260.641 47.5586 260.324 47.5587 257.63 45.0223C253.984 41.6934 253.825 39.6325 256.995 39.6325C258.264 39.6325 259.373 40.4251 259.373 41.3762ZM335.622 40.7423C333.878 41.5349 333.878 41.8518 335.622 42.9614C337.207 43.9126 336.732 44.2298 334.195 43.9127C328.964 43.5957 330.074 39.474 335.305 39.791C337.207 39.791 337.366 40.1082 335.622 40.7423ZM291.078 42.803C291.078 43.5956 290.285 44.3882 289.334 44.3882C288.541 44.3882 288.224 43.5956 288.7 42.803C289.175 41.8518 289.968 41.2178 290.443 41.2178C290.761 41.2178 291.078 41.8518 291.078 42.803ZM318.026 41.8519C318.026 42.1689 316.917 42.9615 315.49 43.4371C314.222 43.9127 313.588 43.7541 314.063 42.803C315.014 41.2178 318.026 40.5837 318.026 41.8519ZM183.283 44.3882C183.283 45.1808 182.173 45.9734 180.747 45.9734C179.478 45.9734 178.844 45.1808 179.32 44.3882C179.795 43.4371 180.905 42.803 181.856 42.803C182.649 42.803 183.283 43.4371 183.283 44.3882ZM192.794 43.4371C192.794 43.9127 192.16 44.7052 191.209 45.1808C190.416 45.6564 189.624 45.3393 189.624 44.5467C189.624 43.5955 190.416 42.803 191.209 42.803C192.16 42.803 192.794 43.12 192.794 43.4371ZM216.255 46.1319C217.365 47.8756 217.207 48.6684 215.621 48.6684C214.512 48.6684 213.878 47.8758 214.512 47.0832C214.987 46.2906 214.036 46.132 212.292 46.6075C208.963 47.7172 203.891 46.4489 203.891 44.5467C203.891 42.1688 214.67 43.5955 216.255 46.1319ZM228.462 44.3882C227.986 45.1808 228.303 45.9734 229.413 45.9734C230.522 45.9734 230.998 46.4489 230.364 46.9245C228.937 48.3512 225.925 45.9734 226.876 44.2297C227.51 43.4371 228.145 42.803 228.62 42.803C229.096 42.803 228.937 43.4371 228.462 44.3882ZM235.119 43.7541C234.644 44.2296 233.217 44.3883 232.108 43.9127C230.839 43.4372 231.315 42.9614 233.059 42.9614C234.802 42.8029 235.754 43.2785 235.119 43.7541ZM246.692 43.4371C246.692 45.1808 243.68 45.8149 242.728 44.3882C242.253 43.5956 242.887 42.803 244.155 42.803C245.582 42.803 246.692 43.12 246.692 43.4371ZM269.519 43.7541C272.531 44.8637 273.006 49.3025 270.153 48.6684C267.933 48.3513 265.714 45.9735 265.714 43.9127C265.714 42.486 266.348 42.4859 269.519 43.7541ZM356.547 45.0223C357.023 46.2905 356.23 47.5587 354.486 48.0343C351.95 48.6683 351.791 48.3513 353.377 45.8149C355.596 42.1689 355.437 42.1689 356.547 45.0223ZM386.191 45.3393C383.971 46.4489 382.545 47.5586 383.02 47.5586C388.727 48.9853 392.531 48.9853 392.531 47.5586C392.531 46.449 393.641 46.4489 396.177 47.7171C399.348 49.4608 399.506 49.461 397.446 47.0832C396.019 45.1809 395.86 44.3882 397.129 44.3882C398.08 44.3882 399.348 45.4978 399.823 46.766C400.457 48.0342 401.409 49.1438 402.36 49.1438C403.152 49.1438 405.055 50.4121 406.481 51.8388C408.172 53.5297 408.172 54.0581 406.481 53.424C404.579 52.7899 402.994 53.741 401.092 57.0699C399.506 59.6063 395.702 62.9353 392.69 64.5205C384.447 68.6421 379.85 72.288 381.118 73.7147C381.752 74.1902 381.435 74.5074 380.484 74.1903C377.947 73.5562 367.168 82.2748 363.68 87.9816C362.095 90.518 360.827 91.7861 360.827 90.5179C360.827 89.2497 358.132 91.152 354.962 94.481C351.633 97.8099 349.255 101.139 349.414 101.773C349.572 102.566 348.938 103.041 347.987 103.041C345.926 103.041 341.646 107.163 342.756 108.114C343.073 108.59 342.28 109.858 340.695 111.126C338.317 113.028 338.158 113.028 339.268 110.967C340.061 109.699 338.476 110.65 335.781 113.345C333.244 115.881 329.915 119.052 328.489 120.162C327.062 121.271 326.428 123.015 326.903 123.966C327.538 124.917 327.379 125.234 326.269 124.6C325.318 124.124 324.05 125.076 323.574 126.978C322.94 128.722 322.148 129.831 321.672 129.356C321.197 128.88 319.928 129.356 318.819 130.465C317.709 131.575 315.331 133.636 313.429 135.221C311.527 136.806 310.417 138.867 311.051 139.818C311.685 140.928 311.527 141.086 310.417 140.452C309.308 139.818 308.515 140.452 308.356 142.196C308.356 143.781 307.881 144.257 307.564 143.147C306.454 140.611 295.992 150.756 296.943 153.293C297.418 154.402 296.626 155.353 295.199 155.353C293.772 155.353 292.663 156.463 292.663 157.89C292.663 159.475 291.712 160.109 290.443 159.633C288.858 158.999 288.224 159.633 288.7 161.694C289.175 163.755 287.907 165.023 284.578 166.291C282.042 167.084 279.981 168.669 279.981 169.462C279.981 170.413 278.871 171.205 277.445 171.205C276.177 171.205 275.384 171.84 275.859 172.632C276.494 173.425 273.799 176.278 270.153 178.973C266.507 181.668 264.129 183.887 265.08 184.046C265.873 184.046 264.921 184.68 262.861 185.631C260.8 186.423 259.69 187.692 260.166 188.643C261.276 190.387 257.312 194.984 254.776 194.984C253.825 194.984 253.191 195.459 253.508 196.093C253.666 196.886 253.191 197.679 252.398 198.154C247.484 200.69 242.728 207.031 243.838 209.409C245.265 212.58 243.997 214.006 240.034 214.006C237.497 214.006 236.546 215.591 236.863 218.92C237.022 219.396 234.485 220.664 231.473 221.774C228.462 222.884 226.401 224.469 227.035 225.261C227.51 226.212 225.608 226.688 222.279 226.371C219.267 226.213 217.048 225.578 217.524 224.944C217.841 224.31 214.67 222.566 210.39 221.14C205.317 219.555 202.147 217.335 201.513 215.433C200.879 213.689 199.611 212.58 198.501 212.738C197.391 213.055 194.221 210.836 191.367 207.983C188.514 205.288 185.344 203.385 184.393 204.02C183.283 204.495 182.966 204.495 183.6 203.861C184.71 202.434 169.809 187.058 167.272 187.058C166.48 187.058 166.163 186.265 166.638 185.472C167.114 184.521 166.797 183.887 166.004 183.887C163.943 183.887 148.408 168.035 148.408 165.816C148.408 165.023 147.933 164.706 147.457 165.182C146.189 166.45 135.568 155.195 136.678 153.61C137.153 152.817 136.836 152.183 135.885 152.183C133.983 152.183 127.8 145.842 127.8 143.94C127.8 143.147 128.593 142.989 129.703 143.623C130.812 144.415 130.971 144.098 130.337 142.83C129.544 141.72 128.117 141.245 126.849 141.72C125.581 142.196 124.63 141.879 124.63 141.086C124.63 140.135 123.837 139.501 122.886 139.501C120.35 139.501 117.179 135.697 117.972 133.477C118.289 132.368 117.338 130.941 115.594 130.624C112.107 129.673 106.241 121.271 106.875 118.101C107.193 116.674 106.4 116.04 104.973 116.674C103.705 117.15 101.169 115.723 99.1079 113.345C97.0471 111.126 93.7182 107.797 91.8159 105.895C89.7551 103.992 88.1699 101.773 88.1699 100.822C88.1699 99.8707 85.3165 97.0173 81.8291 94.481C78.3416 91.7861 75.4882 89.0914 75.4882 88.2988C75.4882 87.5062 72.9519 84.4941 69.9399 81.6408C63.7576 75.4584 64.5502 74.1903 75.3297 73.5562C79.2927 73.2392 86.5847 72.288 91.3404 71.3369C96.096 70.3857 101.327 69.4346 103.071 69.1175C104.656 68.959 107.034 67.3738 108.144 65.7886C109.412 64.0449 110.363 63.7279 110.363 64.8375C110.363 67.2153 125.74 66.1056 128.276 63.5693C129.069 62.7766 130.654 62.4596 131.763 62.7766C132.873 63.2522 134.3 62.9352 134.934 61.984C135.409 61.0329 135.092 60.2403 134.3 60.2403C133.349 60.2403 132.556 59.4478 132.556 58.3382C132.556 57.387 133.824 57.704 135.568 59.2892C137.629 61.1915 138.897 61.5085 139.689 60.2403C140.324 59.1307 141.433 58.9722 142.543 59.9234C145.079 61.9842 151.579 59.4477 151.579 56.4358C151.579 55.1676 152.371 53.5825 153.481 52.9484C154.59 52.1558 154.908 52.6314 154.273 54.3751C153.798 55.8018 154.273 57.2285 155.542 57.704C158.554 58.8137 160.456 55.4847 157.919 53.8995C156.81 53.1069 158.712 52.4729 162.675 51.9973C168.223 51.5217 169.65 51.9973 170.284 54.2166C170.601 55.8019 171.552 56.5944 172.345 56.1188C173.138 55.6433 173.455 54.5336 172.979 53.741C172.345 52.9484 172.82 52.3143 173.613 52.3143C174.564 52.3143 175.357 53.4239 175.357 54.6921C175.357 57.8625 184.551 57.8626 188.197 54.5336C190.258 52.6313 191.209 52.6313 192.16 54.058C192.953 55.3261 192.636 55.6432 191.209 54.6921C189.782 53.8995 189.465 54.058 190.258 55.3262C191.526 57.387 197.708 56.1189 199.294 53.5825C199.769 52.7899 200.72 53.1069 201.196 54.3751C201.671 55.6433 203.732 56.5943 205.793 56.4358C208.488 56.2773 209.28 55.3262 208.963 53.1069C208.752 51.0989 209.386 51.0461 210.866 52.9484C212.609 55.0092 214.67 55.6433 218.158 55.1677C220.852 54.6922 223.389 55.0092 223.864 55.8019C224.974 57.7041 230.839 57.387 230.839 55.4847C230.839 54.375 231.79 54.2166 233.376 55.1677C234.802 55.9603 238.765 56.1188 242.094 55.4847C245.582 54.8506 248.594 54.8506 249.069 55.4847C250.496 57.704 262.227 57.0699 263.178 54.6921C263.653 53.4239 263.178 52.3143 262.227 52.3143C261.276 52.3143 260.958 51.8388 261.434 51.2047C262.068 50.7291 263.812 51.3633 265.239 52.6314C268.567 55.4848 276.335 57.5456 277.445 55.8019C278.237 54.3752 291.553 54.5336 293.931 56.1188C294.882 56.5944 295.833 56.4359 296.15 55.8019C296.309 55.0092 299.004 53.8996 301.857 53.424C304.71 52.7899 306.771 52.9484 306.296 53.741C305.345 55.1677 318.343 54.8506 320.88 53.2654C321.831 52.7898 324.843 52.3143 327.855 52.3143C334.988 52.4728 356.864 50.8876 377.155 48.8269C380.167 48.3513 380.959 45.9734 377.947 45.8149C374.618 45.6564 380.959 43.5957 385.715 43.2786L390.154 43.1201L386.191 45.3393ZM223.706 45.9734C223.23 46.766 221.804 47.5586 220.852 47.5586C219.743 47.5586 219.901 46.9245 221.328 45.9734C224.34 44.0711 224.974 44.0711 223.706 45.9734ZM265.714 47.7171C265.714 48.6682 265.08 48.8268 264.129 48.3512C263.336 47.8757 262.544 46.6075 262.544 45.8149C262.544 44.8638 263.336 44.7052 264.129 45.1808C265.08 45.6564 265.714 46.9245 265.714 47.7171ZM166.955 46.9245C166.48 47.4001 165.053 47.5587 163.943 47.0832C162.675 46.6076 163.151 46.1319 164.894 46.1319C166.638 45.9734 167.589 46.4489 166.955 46.9245ZM203.098 47.5586C203.574 48.5097 202.94 48.6683 201.671 48.1927C198.818 47.0831 198.342 45.9734 200.562 45.9734C201.513 45.9734 202.623 46.6075 203.098 47.5586ZM143.177 49.9364C143.177 51.2046 142.543 52.3143 141.909 52.3143C141.275 52.3143 140.482 51.2046 139.848 49.9364C139.372 48.5097 139.848 47.5586 141.116 47.5586C142.226 47.5586 143.177 48.6683 143.177 49.9364ZM130.971 51.5217C129.861 52.7898 127.166 53.741 124.788 53.741C121.618 53.5825 121.301 53.424 123.837 52.7899C125.581 52.3143 127.642 51.3632 128.593 50.5706C130.971 48.1927 133.032 48.9853 130.971 51.5217ZM185.978 51.6801C185.502 52.1557 184.076 52.3144 182.966 51.8388C181.698 51.3633 182.173 50.8875 183.917 50.8875C185.661 50.729 186.612 51.2046 185.978 51.6801ZM272.055 51.3632C272.055 51.8387 271.421 52.6313 270.47 53.1069C269.677 53.5824 268.885 53.2654 268.885 52.4727C268.885 51.5216 269.677 50.729 270.47 50.729C271.421 50.729 272.055 51.0461 272.055 51.3632ZM119.399 54.8506C118.923 55.3261 117.496 55.4848 116.387 55.0092C115.119 54.5337 115.594 54.058 117.338 54.058C119.082 53.8994 120.033 54.375 119.399 54.8506ZM142.701 55.6432C143.177 56.1187 142.067 56.4359 140.482 56.5945C138.738 56.753 137.312 56.2773 137.312 55.4847C137.312 54.2165 141.275 54.2165 142.701 55.6432ZM105.607 57.0699C104.339 57.8625 102.595 58.6551 101.644 58.6551C100.852 58.6551 101.169 57.8625 102.437 57.0699C103.705 56.2773 105.607 55.4847 106.4 55.4847C107.351 55.4847 106.875 56.2773 105.607 57.0699ZM102.912 65.1545C101.486 66.5812 101.01 66.2643 101.327 63.7279C101.486 61.5086 102.12 60.8744 103.071 61.8256C104.181 62.9352 104.022 64.0448 102.912 65.1545ZM120.667 61.8256C116.387 63.7278 113.85 63.7278 116.704 61.8256C117.972 61.0329 120.191 60.3988 121.459 60.3988C123.045 60.3988 122.728 60.8744 120.667 61.8256ZM462.439 66.8984C468.78 73.7148 470.524 80.2141 472.743 105.419C473.536 114.772 474.487 122.856 474.963 122.856C475.121 122.856 475.755 128.563 477.182 143.94C477.658 148.537 478.45 153.768 479.084 155.67C479.718 157.731 479.243 159.475 477.975 160.267C476.706 161.06 476.548 161.694 477.34 161.694C478.292 161.694 478.926 165.816 478.767 171.364C478.767 176.595 479.243 181.192 479.877 181.668C480.511 181.985 481.145 185.631 481.145 189.753C481.462 202.434 483.364 223.359 486.852 250.466C488.437 262.038 488.913 294.377 487.644 296.437C487.01 297.547 485.742 298.023 484.791 297.389C483.84 296.913 481.145 297.23 478.609 298.181C476.231 299.132 471.634 300.242 468.622 300.401C465.61 300.718 462.915 301.669 462.598 302.62C462.281 303.571 461.33 304.364 460.537 304.364C459.586 304.364 459.427 303.571 460.062 302.62C461.488 300.242 454.038 302.62 452.453 304.998C451.501 306.266 451.184 306.107 451.184 304.681C451.184 303.73 449.282 302.778 447.063 302.778C444.844 302.778 443.417 303.412 444.051 304.205C444.526 304.998 444.051 306.266 443.1 306.9C441.832 307.692 441.673 307.375 442.466 306.107C443.258 304.681 442.783 304.205 440.722 304.681C438.978 304.998 437.869 306.424 438.186 307.692C438.503 309.278 438.027 309.119 436.442 307.217C435.015 305.473 432.637 304.681 429.625 305.156C421.382 306.107 404.421 308.01 401.25 308.168C399.506 308.327 396.494 309.436 394.592 310.387C391.897 311.814 389.995 311.973 387.934 310.704C386.19 309.912 384.447 309.753 383.971 310.387C383.496 311.18 380.959 311.656 378.264 311.497C375.728 311.339 373.509 311.814 373.509 312.765C373.509 313.558 371.765 313.716 369.704 313.241C367.485 312.765 365.266 312.924 364.79 313.875C364.315 314.826 362.095 314.985 359.876 314.509C357.657 313.875 352.901 314.668 349.255 315.936C345.609 317.362 338.317 318.314 333.086 318.314C322.782 318.314 307.088 319.582 295.833 321.167C291.87 321.801 283.786 322.118 277.603 321.959C271.262 321.801 267.299 322.277 268.568 323.069C269.677 323.862 264.604 324.496 256.678 324.654C233.851 324.813 233.059 324.971 235.595 326.874C237.497 327.983 237.18 328.142 234.802 327.191C233.059 326.557 229.888 326.081 227.669 326.24C223.864 326.557 216.097 326.715 212.609 326.557C207.537 326.398 154.59 329.093 152.371 329.727C151.579 329.886 150.469 330.044 149.993 329.885C146.03 328.459 133.349 328.3 131.763 329.727C130.178 330.995 129.227 330.837 127.959 328.617C127.008 327.032 126.215 326.715 126.215 327.666C126.215 329.886 121.459 330.678 121.459 328.459C121.459 327.825 117.655 327.191 112.899 326.874C108.144 326.557 102.595 326.081 100.535 325.605C98.4738 325.13 92.9256 324.337 88.1699 324.02C83.4143 323.545 78.3416 322.435 76.7564 321.642C75.3297 320.85 72.0007 320.216 69.4644 320.216C66.928 320.216 63.5991 318.789 62.0139 317.045C60.4286 315.302 58.3679 313.875 57.2582 313.875C56.3071 313.875 53.9293 312.448 52.027 310.704C49.9662 308.802 48.5395 308.168 48.5395 309.436C48.5395 310.388 47.5884 309.912 46.3202 308.168C44.5765 305.949 44.5765 304.681 45.8447 303.096C46.6373 301.986 46.7958 301.193 46.0032 301.352C42.3572 301.986 41.8816 301.035 44.735 298.815C46.4787 297.547 46.9543 296.596 45.6861 296.437C44.418 296.437 43.9424 295.011 44.5765 291.999C45.0521 289.621 44.8935 288.67 44.418 289.621C43.9424 290.731 42.8328 291.682 42.0401 291.682C40.2964 291.682 40.9305 288.036 42.9913 286.609C43.9424 285.817 43.7839 284.707 42.3572 283.439C40.6134 281.695 40.2964 281.695 41.4061 283.597C42.3572 285.182 42.0401 285.499 40.6135 284.548C39.0282 283.597 39.1868 282.805 41.4061 281.061C44.2594 279.159 44.1009 279 40.4549 278.842C37.7601 278.683 37.443 278.366 39.3453 277.891C42.9913 276.939 42.9913 274.244 39.5038 274.244C37.126 274.244 37.126 273.927 38.8697 272.818C40.9305 271.55 40.9305 270.916 38.8697 268.538C37.6015 266.953 37.443 266.16 38.3941 266.794C39.5038 267.428 40.772 266.794 41.2475 265.367C41.7231 264.099 41.5646 263.465 40.6135 263.941C39.6623 264.416 39.0282 264.099 39.0282 263.148C39.0282 262.197 38.3941 261.88 37.443 262.355C36.4919 262.831 36.3334 262.197 36.8089 260.929C37.2845 259.502 38.2356 258.709 39.0282 259.185C39.6623 259.502 39.6623 256.966 39.0282 253.478C38.3941 249.832 36.8089 246.345 35.6993 245.552C33.9555 244.442 34.1141 244.125 36.1749 244.125C38.5527 244.125 38.7112 243.491 37.126 240.004C35.8578 237.15 35.6993 235.565 36.9675 234.931C38.8697 233.663 38.7112 227.322 36.6504 225.578C36.0163 224.786 35.8578 225.261 36.4919 226.213C37.2845 227.639 36.8089 227.956 34.9067 227.164C32.3703 226.213 32.3703 226.054 35.3822 224.627C38.3942 223.359 38.5527 222.884 36.4919 216.067C34.5896 209.885 34.5896 209.092 36.6504 209.885C39.3453 210.836 39.6623 209.568 37.6015 206.239C36.8089 204.97 35.2237 204.495 33.9555 204.971C32.6874 205.446 31.5777 204.812 31.5777 203.702C31.5777 202.593 32.8459 202.117 34.7482 202.593C37.2845 203.227 37.6015 202.593 37.2845 197.203C37.126 193.874 35.8578 188.96 34.5896 186.423C33.0044 183.095 33.0044 182.302 34.4311 183.253C35.8578 184.046 36.0163 183.57 35.3822 181.668C34.5896 179.449 34.9067 178.973 36.6504 179.766C38.0771 180.241 39.0282 179.766 39.0282 178.339C39.0282 177.071 38.0771 175.961 37.126 175.961C35.6993 175.961 35.8578 175.327 37.443 174.376C39.6623 172.949 38.5527 172.157 35.3822 172.632C34.7482 172.791 34.9067 171.523 35.6993 169.937C36.6504 168.194 36.9675 165.023 36.4919 162.645C36.0163 159.792 36.3334 158.682 37.443 159.316C38.2356 159.792 39.0282 159.633 39.0282 158.841C39.0282 157.89 37.7601 156.78 36.3334 156.304C34.4311 155.512 34.2726 154.719 35.5408 153.451C36.8089 152.183 36.6504 151.073 34.9067 149.488C33.6385 148.22 32.8459 146.001 32.8459 144.574C33.0044 142.038 33.1629 142.038 33.797 144.574C34.5896 147.427 39.0282 149.805 39.0282 147.427C39.0282 146.476 38.3941 145.842 37.6015 145.842C35.5408 145.842 34.5896 131.575 36.6504 131.417C37.443 131.417 36.8089 130.782 35.0652 129.99C33.3215 129.197 32.8459 128.563 33.9555 128.563C34.9067 128.405 35.8578 127.295 35.8578 125.868C35.8578 124.442 35.0652 123.966 33.9555 124.6C32.8459 125.393 32.6874 125.076 33.48 123.649C34.4311 122.064 35.3822 122.381 37.7601 125.076C39.3453 127.136 40.6135 128.246 40.6135 127.612C40.6135 126.978 42.5157 128.88 45.0521 131.734C50.4418 138.55 53.7707 142.355 62.8065 151.866C66.7695 155.987 71.6837 161.853 73.903 164.865C76.1223 167.876 78.9757 171.522 80.2438 172.949C81.512 174.217 85.7921 179.132 89.5966 183.57C93.5597 188.167 97.5227 191.813 98.7909 191.813C99.9005 191.813 100.376 192.764 99.9005 194.191C99.2664 195.618 99.9005 196.569 101.327 196.569C102.595 196.569 104.022 197.679 104.656 198.947C105.132 200.215 106.717 201.325 107.985 201.325C109.412 201.325 110.204 201.959 109.57 202.91C108.302 205.129 130.971 229.858 134.458 229.858C135.092 229.858 135.726 230.81 135.726 232.078C135.726 233.187 139.055 236.992 143.335 240.321C147.457 243.65 151.262 247.137 151.896 248.088C152.53 248.881 153.164 249.04 153.164 248.406C153.164 247.771 155.859 249.991 159.029 253.637C164.419 259.343 169.016 262.355 166.638 258.392C166.163 257.441 166.797 257.283 168.223 257.917C170.126 258.551 170.284 259.185 168.857 259.978C167.589 260.77 169.174 262.831 173.772 266.16C180.112 270.757 181.381 271.391 184.234 270.916C184.868 270.916 185.819 271.708 186.612 272.976C187.563 274.562 188.356 274.403 190.258 271.867C192.002 269.489 192.953 269.172 194.696 270.757C195.965 271.708 197.55 272.184 198.184 271.55C198.818 270.916 198.818 271.55 198.184 273.135C196.916 276.464 196.757 276.464 193.745 273.293C192.319 272.025 191.209 271.391 191.209 272.184C191.209 274.086 193.745 277.732 195.014 277.573C198.501 277.098 200.72 277.573 200.086 278.683C199.769 279.317 201.037 279.951 202.94 279.951C204.842 279.951 206.586 279 206.586 277.891C206.586 276.939 205.951 276.305 205.159 276.781C204.525 277.256 203.891 276.781 203.891 275.988C203.891 275.037 205 274.244 206.269 274.244C207.695 274.244 208.646 275.671 208.646 277.573C208.646 280.11 209.28 280.585 211.5 279.793C212.926 279.159 216.731 278.049 219.743 277.256C222.596 276.622 226.401 274.403 227.986 272.342C229.571 270.281 230.839 269.33 230.839 270.123C230.839 270.757 232.266 269.806 234.168 267.745C235.912 265.684 236.863 264.892 236.229 266.16C235.436 267.587 235.754 268.062 236.863 267.269C237.973 266.635 238.765 265.209 238.765 264.099C238.765 262.989 240.509 261.087 242.728 259.978C244.948 258.868 246.374 257.6 246.057 257.283C245.74 256.966 248.752 253.478 252.557 249.674C256.361 245.711 259.056 242.54 258.581 242.54C257.947 242.54 260.958 240.004 265.239 236.675C269.36 233.505 273.482 229.859 274.274 228.59C277.128 223.676 360.986 141.72 382.386 122.856C388.251 117.625 394.434 112.077 396.019 110.492C397.604 109.065 399.189 107.797 399.665 107.797C400.14 107.797 402.835 105.578 405.689 102.883C408.542 100.188 412.188 96.7003 413.932 94.9566C415.834 93.3714 418.053 91.9447 419.163 91.9447C420.273 91.9447 421.065 91.3105 421.065 90.5179C421.065 89.7253 422.492 88.4572 424.236 87.9816C425.979 87.5061 427.406 85.7624 427.406 84.4942C427.406 83.0675 427.882 82.4334 428.516 82.909C429.625 84.0187 437.552 78.4703 443.892 72.1295C445.953 70.0687 447.38 68.0079 446.904 67.5323C446.429 67.2153 447.38 67.0568 448.965 67.2153C450.55 67.5324 452.928 66.7398 454.038 65.4716C457.05 62.6182 458.476 62.7768 462.439 66.8984ZM513.642 76.4097C513.166 77.0437 511.898 77.6778 510.947 77.5192C509.52 77.5192 509.52 77.2022 510.947 76.7266C512.057 76.2511 512.374 74.6659 511.898 73.2392C511.264 71.0199 511.423 71.0198 512.691 72.9221C513.642 74.1902 513.959 75.7756 513.642 76.4097ZM516.178 95.1151C516.178 95.9077 515.544 96.7003 514.593 96.7003C513.8 96.7003 513.008 95.9077 513.008 95.1151C513.008 94.164 513.8 93.5299 514.593 93.5299C515.544 93.5299 516.178 94.164 516.178 95.1151ZM23.1761 128.405C23.1761 129.197 22.859 129.99 22.542 129.99C22.0664 129.99 21.2738 129.197 20.7983 128.405C20.3227 127.453 20.6397 126.819 21.4323 126.819C22.3835 126.819 23.1761 127.453 23.1761 128.405ZM59.636 133.16C59.636 133.953 58.8434 134.745 57.8923 134.745C57.0997 134.745 56.7826 133.953 57.2582 133.16C57.7338 132.209 58.5264 131.575 59.0019 131.575C59.319 131.575 59.636 132.209 59.636 133.16ZM23.1761 226.688C23.1761 227.481 22.0664 227.639 20.4812 227.164C18.7375 226.53 18.2619 226.688 19.0545 227.956C19.8471 229.224 19.3716 229.541 17.7863 228.907C16.3597 228.432 15.7256 227.322 16.2011 226.53C17.3108 224.627 23.1761 224.786 23.1761 226.688ZM170.126 241.906C169.65 242.382 168.223 242.54 167.114 242.065C165.846 241.589 166.321 241.113 168.065 241.113C169.809 240.955 170.76 241.43 170.126 241.906ZM168.065 245.869C166.797 247.93 164.736 247.613 163.785 245.076C163.151 243.491 163.785 243.174 166.004 243.65C167.589 244.125 168.54 245.076 168.065 245.869ZM183.917 253.795C183.124 255.222 176.942 254.271 175.515 252.686C175.04 252.051 175.832 252.052 177.418 252.527C179.161 253.161 180.588 252.686 181.222 251.1C181.856 249.198 182.49 249.039 183.441 250.625C184.076 251.734 184.393 253.161 183.917 253.795ZM234.644 259.819C237.339 260.77 237.18 261.246 233.059 263.941C228.937 266.477 228.779 266.635 230.681 264.099C232.742 261.721 232.742 261.087 230.681 259.819C227.986 258.234 230.364 258.075 234.644 259.819ZM191.843 262.514C192.477 263.941 192.477 265.526 192.002 266.001C191.526 266.477 191.209 266.001 191.209 264.892C191.209 263.623 190.099 263.148 188.831 263.782C186.453 264.575 185.661 262.99 187.563 261.087C189.307 259.344 190.892 259.819 191.843 262.514ZM214.987 262.197C214.987 262.672 214.353 263.465 213.402 263.941C212.609 264.416 211.817 264.099 211.817 263.306C211.817 262.355 212.609 261.563 213.402 261.563C214.353 261.563 214.987 261.88 214.987 262.197ZM205.317 269.647C204.049 270.281 202.781 270.281 202.147 269.33C201.671 268.379 200.72 267.745 200.086 267.904C199.452 268.062 198.184 267.745 197.074 267.428C195.331 266.636 199.769 265.684 202.781 266.16C203.415 266.16 203.891 265.367 203.891 264.258C203.891 263.307 204.683 263.624 205.634 265.367C207.061 267.587 206.903 268.538 205.317 269.647ZM224.498 268.855C224.498 270.757 223.864 270.757 221.328 269.489C219.584 268.538 218.475 267.111 218.95 266.318C220.218 264.258 224.498 266.318 224.498 268.855ZM186.453 267.904C186.453 268.696 186.136 269.489 185.819 269.489C185.344 269.489 184.551 268.696 184.076 267.904C183.6 266.952 183.917 266.318 184.71 266.318C185.661 266.318 186.453 266.952 186.453 267.904ZM211.183 269.489C211.183 271.391 210.549 272.025 209.756 271.233C208.963 270.44 208.805 269.013 209.28 268.062C210.866 265.684 211.183 265.843 211.183 269.489ZM221.328 272.659C221.328 273.452 220.535 274.244 219.584 274.244C218.792 274.244 218.475 273.452 218.95 272.659C219.426 271.708 220.218 271.074 220.694 271.074C221.011 271.074 221.328 271.708 221.328 272.659ZM216.572 274.879C216.572 275.196 215.146 275.83 213.402 276.305C211.658 276.781 210.549 276.464 211.183 275.671C211.975 274.245 216.572 273.61 216.572 274.879ZM520.458 296.755C519.983 298.023 519.507 297.547 519.507 295.803C519.349 294.06 519.824 293.109 520.3 293.743C520.775 294.218 520.934 295.645 520.458 296.755ZM474.963 331.312C474.963 332.422 473.694 332.739 471.475 331.946C466.561 330.52 466.402 330.203 468.78 327.666C470.524 325.923 471.317 325.764 472.902 327.508C474.011 328.617 474.963 330.361 474.963 331.312ZM405.213 327.191C405.213 327.666 404.579 328.459 403.628 328.934C402.835 329.41 402.043 329.093 402.043 328.3C402.043 327.349 402.835 326.557 403.628 326.557C404.579 326.557 405.213 326.874 405.213 327.191ZM479.718 333.69C481.462 335.751 481.303 335.909 479.084 335.117C477.657 334.641 476.548 333.532 476.548 332.739C476.548 330.678 477.499 330.995 479.718 333.69ZM50.6003 343.994C50.1248 345.896 49.3321 347.006 48.8566 346.53C48.064 345.579 49.6492 340.824 50.7588 340.824C51.0759 340.824 51.0759 342.25 50.6003 343.994ZM98.1568 346.213C99.9005 350.652 98.9494 350.652 95.6204 346.213C93.7182 343.518 93.4011 342.409 94.8278 342.726C95.9375 343.043 97.3642 344.628 98.1568 346.213ZM301.54 347.957C301.699 349.384 300.906 349.701 299.321 349.067C297.735 348.433 297.418 347.957 298.687 347.482C299.796 347.165 300.113 346.055 299.479 345.104C299.004 343.994 299.162 343.836 299.796 344.47C300.589 345.104 301.381 346.689 301.54 347.957ZM333.086 345.579C330.074 346.847 330.074 347.006 333.561 347.006C335.464 347.164 337.049 347.957 337.049 348.908C337.049 350.018 335.464 350.335 333.086 350.018C331.025 349.542 328.964 350.018 328.489 350.969C328.172 351.92 327.696 351.128 327.696 349.225C327.538 345.896 329.44 344.311 333.878 344.152C335.305 344.152 335.147 344.787 333.086 345.579ZM241.619 353.347C244.948 354.298 248.435 354.298 250.655 353.505C253.825 352.237 254.935 352.554 256.203 355.091C257.154 356.834 257.63 358.261 257.471 358.419C257.154 358.419 255.252 358.736 253.032 359.212C249.228 359.846 249.228 359.688 252.081 357.468C253.825 356.2 254.459 355.091 253.508 355.091C252.398 355.091 250.655 356.2 249.228 357.468C247.96 358.737 245.899 359.846 244.789 360.005C243.68 360.005 244.155 360.639 245.74 361.273C247.484 361.907 248.118 362.858 247.326 363.492C246.374 363.968 244.789 363.651 243.521 362.858C241.46 361.59 241.619 361.114 243.997 359.212C247.326 356.676 246.057 355.408 240.351 355.883C238.131 356.042 235.436 355.249 234.327 353.981C231.79 351.444 234.01 351.286 241.619 353.347ZM58.0508 355.091C58.0508 355.883 57.7338 356.676 57.4167 356.676C56.9412 356.676 56.1486 355.883 55.673 355.091C55.1974 354.14 55.5145 353.505 56.3071 353.505C57.2582 353.505 58.0508 354.14 58.0508 355.091ZM129.386 355.408C129.386 357.151 127.483 356.993 124.63 355.091C122.728 353.981 123.045 353.664 125.898 353.981C127.8 353.981 129.386 354.774 129.386 355.408ZM185.819 359.529C185.502 360.163 182.807 360.956 180.112 361.114C177.101 361.431 175.515 360.956 176.149 359.846C177.735 357.31 175.198 357.944 171.552 360.956C169.016 363.175 168.699 363.175 169.809 361.432C170.76 359.952 170.495 359.952 169.016 361.432C166.004 364.443 157.285 364.919 159.822 361.907C160.773 360.639 161.09 359.37 160.456 358.736C159.98 358.261 159.505 358.578 159.505 359.529C159.505 360.639 158.395 361.432 157.127 361.432C155.859 361.432 154.749 362.224 154.749 363.175C154.749 364.443 154.115 364.443 152.53 363.175C151.103 361.907 150.152 361.907 149.676 362.858C149.359 363.968 147.298 363.968 143.335 362.699C136.836 360.797 131.763 361.907 133.507 364.919C134.141 366.029 133.19 365.712 131.446 364.126C128.751 361.749 127.325 361.59 124.788 362.858C120.508 365.236 119.874 365.077 119.874 361.59C119.874 357.627 123.362 356.993 133.032 358.895C139.531 360.163 140.958 359.846 143.018 357.31C144.445 355.725 145.079 355.249 144.445 356.2C143.97 357.31 144.287 358.261 145.079 358.261C146.03 358.261 146.823 357.31 146.823 356.2C146.823 354.932 147.14 354.773 148.091 356.042C148.884 357.31 151.737 357.468 156.651 356.676C160.773 356.2 164.736 356.2 165.528 356.993C166.321 357.785 168.699 357.627 171.077 356.517C174.406 355.091 175.832 355.091 177.576 356.517C179.32 357.944 180.271 357.944 182.015 356.2C183.758 354.139 184.234 354.139 185.344 356.042C185.978 357.31 186.295 358.895 185.819 359.529ZM189.624 355.091C189.624 355.883 189.307 356.676 188.99 356.676C188.514 356.676 187.721 355.883 187.246 355.091C186.77 354.14 187.087 353.505 187.88 353.505C188.831 353.505 189.624 354.14 189.624 355.091ZM193.587 355.091C193.111 355.883 193.428 356.834 194.221 356.834C195.172 356.993 196.757 357.151 197.867 357.31C198.818 357.31 199.769 358.736 200.086 360.322C200.403 363.016 200.245 363.017 197.708 360.797C195.806 359.053 194.538 358.736 193.27 360.005C192.002 361.273 191.209 361.114 190.416 359.688C189.465 358.419 189.782 358.103 191.209 359.054C192.794 360.005 193.111 359.687 192.319 357.944C191.843 356.517 191.843 354.932 192.319 354.456C193.904 352.871 194.696 353.347 193.587 355.091ZM234.01 357.31C234.01 358.737 232.583 359.529 230.839 359.371C229.096 359.212 227.669 358.578 227.669 357.785C227.669 356.993 228.779 356.676 230.047 357.31C231.315 357.785 232.425 357.468 232.425 356.676C232.425 355.725 232.742 355.091 233.217 355.091C233.693 355.091 234.01 356.042 234.01 357.31ZM111.156 358.261C111.631 359.054 111.314 359.846 110.521 359.846C109.57 359.846 108.778 359.054 108.778 358.261C108.778 357.31 109.095 356.676 109.412 356.676C109.887 356.676 110.68 357.31 111.156 358.261ZM65.9769 359.688C65.9769 360.48 64.8672 361.431 63.7576 361.907C62.1724 362.541 61.6968 362.065 62.3309 360.48C63.282 358.102 65.9769 357.468 65.9769 359.688ZM198.342 364.602C198.977 365.553 197.233 366.187 194.379 366.187C191.526 366.187 189.782 365.553 190.416 364.602C190.892 363.651 192.794 363.017 194.379 363.017C195.965 363.017 197.867 363.651 198.342 364.602ZM94.0352 365.553C93.5597 366.028 92.133 366.187 91.0233 365.712C89.7551 365.236 90.2307 364.76 91.9744 364.76C93.7182 364.602 94.6693 365.077 94.0352 365.553Z" fill="#171717"/>
<path fill-rule="evenodd" clip-rule="evenodd" d="M161.09 67.8018C161.09 68.7529 161.565 69.07 162.041 68.5944C162.675 68.1188 164.419 68.2772 166.004 69.2283C168.382 70.338 169.016 70.1795 169.016 68.2772C169.016 66.8505 167.589 65.8994 165.053 65.8994C162.834 65.8994 161.09 66.6921 161.09 67.8018Z" fill="#171717"/>
<path fill-rule="evenodd" clip-rule="evenodd" d="M37.4429 197.631C37.4429 199.374 38.077 200.484 39.0281 199.85C39.8207 199.374 40.1377 197.948 39.5037 196.68C38.394 193.351 37.4429 193.668 37.4429 197.631Z" fill="#171717"/>
<path fill-rule="evenodd" clip-rule="evenodd" d="M521.092 149.282C521.092 151.025 521.567 151.501 522.043 150.233C522.518 149.123 522.36 147.697 521.884 147.221C521.409 146.587 520.933 147.538 521.092 149.282Z" fill="#171717"/>
<path fill-rule="evenodd" clip-rule="evenodd" d="M528.068 271.978C527.592 272.77 527.909 273.563 528.702 273.563C529.653 273.563 530.446 272.77 530.446 271.978C530.446 271.026 530.128 270.392 529.811 270.392C529.336 270.392 528.543 271.026 528.068 271.978Z" fill="#171717"/>
<path fill-rule="evenodd" clip-rule="evenodd" d="M517.129 318.741C516.653 320.168 517.129 321.119 518.555 321.119C519.823 321.119 520.933 320.01 520.933 318.741C520.933 317.473 520.299 316.364 519.506 316.364C518.714 316.364 517.763 317.473 517.129 318.741Z" fill="#171717"/>
<path fill-rule="evenodd" clip-rule="evenodd" d="M494.936 339.349C494.461 340.617 494.778 341.727 495.57 341.727C497.631 341.727 499.058 338.873 497.314 337.922C496.522 337.447 495.57 338.081 494.936 339.349Z" fill="#171717"/>
<path fill-rule="evenodd" clip-rule="evenodd" d="M436.917 344.739C436.917 345.69 437.551 346.799 438.502 347.275C439.453 347.751 439.612 347.116 439.136 345.848C438.027 342.995 436.917 342.519 436.917 344.739Z" fill="#171717"/>
<path fill-rule="evenodd" clip-rule="evenodd" d="M492.558 346.958C490.497 350.287 490.656 350.287 493.351 347.751C494.936 346.166 495.887 344.58 495.412 344.263C494.936 343.788 493.668 345.056 492.558 346.958Z" fill="#171717"/>
<path fill-rule="evenodd" clip-rule="evenodd" d="M410.603 350.287C410.128 351.714 409.018 352.507 408.384 352.031C407.591 351.555 406.482 351.872 406.006 352.824C405.213 354.092 404.262 353.933 402.677 352.665C401.409 351.714 399.982 351.238 399.348 351.872C398.873 352.348 399.19 352.824 400.458 352.824C402.043 352.824 402.043 353.299 400.458 355.201C399.031 356.945 398.873 358.213 399.982 359.323C401.25 360.591 402.043 360.433 402.677 359.323C403.311 358.372 402.836 357.579 401.726 357.421C400.616 357.262 401.409 356.787 403.628 356.152C405.847 355.36 408.859 355.519 410.603 356.47C412.664 357.421 413.139 357.421 412.505 356.152C411.871 355.201 412.188 354.409 412.981 354.409C415.2 354.409 415.2 350.129 413.139 348.861C412.188 348.385 411.079 349.019 410.603 350.287Z" fill="#171717"/>
<path fill-rule="evenodd" clip-rule="evenodd" d="M418.529 349.494C417.103 351.08 418.054 352.823 420.431 352.823C422.017 352.823 422.651 353.775 422.017 355.201C421.541 356.628 422.017 357.579 423.285 357.579C424.553 357.579 425.821 356.152 426.297 354.567C426.772 352.348 428.041 351.714 430.418 352.348C432.638 352.824 433.747 352.506 433.747 350.921C433.747 349.336 431.687 348.86 426.455 348.86C422.492 348.86 419.005 349.177 418.529 349.494Z" fill="#171717"/>
<path fill-rule="evenodd" clip-rule="evenodd" d="M435.332 351.397C435.332 352.189 436.125 352.506 436.917 352.031C437.868 351.555 438.502 350.763 438.502 350.287C438.502 349.97 437.868 349.653 436.917 349.653C436.125 349.653 435.332 350.446 435.332 351.397Z" fill="#171717"/>
<path fill-rule="evenodd" clip-rule="evenodd" d="M441.039 352.189C440.404 353.616 440.404 355.201 440.88 355.677C441.197 356.153 441.99 355.201 442.624 353.775C443.258 352.348 443.258 350.763 442.782 350.287C442.465 349.812 441.673 350.763 441.039 352.189Z" fill="#171717"/>
<path fill-rule="evenodd" clip-rule="evenodd" d="M451.185 351.238C449.283 352.506 449.6 352.823 452.453 352.823C454.514 352.823 455.623 352.189 455.148 351.238C454.038 349.336 454.197 349.336 451.185 351.238Z" fill="#171717"/>
<path fill-rule="evenodd" clip-rule="evenodd" d="M373.667 357.896C372.188 360.327 372.61 360.538 374.935 358.53C378.423 355.36 378.898 354.409 376.996 354.409C376.362 354.409 374.935 355.994 373.667 357.896Z" fill="#171717"/>
<path fill-rule="evenodd" clip-rule="evenodd" d="M432.162 355.043C432.162 356.47 436.917 357.262 437.71 355.994C438.344 355.043 437.234 354.409 435.491 354.409C433.588 354.409 432.162 354.726 432.162 355.043Z" fill="#171717"/>
<path fill-rule="evenodd" clip-rule="evenodd" d="M343.707 357.896C341.488 360.116 341.171 362.969 343.39 361.542C344.341 361.067 344.975 361.384 344.975 362.493C344.975 364.078 345.451 364.078 346.719 362.81C347.828 361.701 347.987 360.115 347.036 358.53C345.926 356.469 345.134 356.47 343.707 357.896Z" fill="#171717"/>
<path fill-rule="evenodd" clip-rule="evenodd" d="M388.568 357.579C388.092 358.53 388.727 358.689 389.995 358.213C392.848 357.104 393.324 355.994 391.104 355.994C390.153 355.994 389.044 356.628 388.568 357.579Z" fill="#171717"/>
<path fill-rule="evenodd" clip-rule="evenodd" d="M415.517 357.579C415.042 358.372 415.359 359.164 416.151 359.164C417.103 359.164 417.895 358.372 417.895 357.579C417.895 356.628 417.578 355.994 417.261 355.994C416.786 355.994 415.993 356.628 415.517 357.579Z" fill="#171717"/>
<path fill-rule="evenodd" clip-rule="evenodd" d="M350.523 359.164C349.414 360.908 351.316 365.505 353.218 365.505C354.011 365.505 354.328 364.871 353.852 364.078C352.267 361.542 357.181 360.908 361.303 363.128C363.522 364.237 365.742 364.871 366.217 364.395C367.327 363.127 360.986 359.798 355.596 358.847C353.218 358.372 350.841 358.53 350.523 359.164Z" fill="#171717"/>
<path d="M376.679 363.92C377.554 363.92 378.264 363.21 378.264 362.335C378.264 361.459 377.554 360.75 376.679 360.75C375.803 360.75 375.094 361.459 375.094 362.335C375.094 363.21 375.803 363.92 376.679 363.92Z" fill="#171717"/>
<path fill-rule="evenodd" clip-rule="evenodd" d="M380.642 362.335C380.167 363.128 380.484 363.92 381.276 363.92C382.228 363.92 383.02 363.128 383.02 362.335C383.02 361.384 382.703 360.75 382.386 360.75C381.911 360.75 381.118 361.384 380.642 362.335Z" fill="#171717"/>
<path fill-rule="evenodd" clip-rule="evenodd" d="M357.022 365.822C357.497 366.615 358.607 366.774 359.399 366.298C361.46 364.871 361.143 364.396 358.448 364.396C357.18 364.396 356.546 365.03 357.022 365.822Z" fill="#171717"/>
<path fill-rule="evenodd" clip-rule="evenodd" d="M328.33 368.676C327.855 369.468 328.172 370.261 328.964 370.261C329.916 370.261 330.708 369.468 330.708 368.676C330.708 367.725 330.391 367.091 330.074 367.091C329.599 367.091 328.806 367.725 328.33 368.676Z" fill="#171717"/>
<path fill-rule="evenodd" clip-rule="evenodd" d="M317.234 370.261C316.759 371.054 317.076 371.846 317.868 371.846C318.819 371.846 319.612 371.054 319.612 370.261C319.612 369.31 319.295 368.676 318.978 368.676C318.502 368.676 317.71 369.31 317.234 370.261Z" fill="#171717"/>
<path fill-rule="evenodd" clip-rule="evenodd" d="M289.174 372.956C290.284 373.432 291.711 373.273 292.186 372.797C292.82 372.322 291.869 371.846 290.126 372.005C288.382 372.005 287.906 372.48 289.174 372.956Z" fill="#171717"/>
</svg>
