<svg width="353" height="480" viewBox="0 0 353 480" fill="none" xmlns="http://www.w3.org/2000/svg">
<path d="M153.08 452.79C158.832 450.68 164.304 448.818 170.138 447.219C170.254 447.196 170.373 447.21 170.48 447.258C170.587 447.307 170.676 447.388 170.734 447.49C170.793 447.592 170.817 447.71 170.805 447.827C170.793 447.944 170.744 448.054 170.666 448.142C168.39 450.379 165.626 452.057 162.592 453.044C159.557 454.031 156.335 454.299 153.179 453.828C153.064 453.805 152.959 453.746 152.88 453.659C152.801 453.573 152.753 453.462 152.742 453.346C152.731 453.229 152.757 453.112 152.818 453.011C152.879 452.911 152.971 452.833 153.08 452.79Z" fill="#231F20"/>
<path d="M348.072 7.46001C349.49 -21.2672 293.535 41.9722 256.699 45.73C256.699 45.73 255.661 45.73 255.562 46.6365C255.463 47.543 256.518 47.7078 256.518 47.7078C280.746 51.3337 304.726 37.5717 324.998 25.4743C261.116 120.688 160.744 109.859 32.3532 112.414C5.85102 112.941 9.80652 129.983 19.3163 141.009C44.7143 164.265 83.8414 174.154 114.447 188.987C152.635 206.293 199.574 221.175 235.422 243.145C247.519 250.562 247.469 259.775 231.12 261.159C200.102 263.813 162.194 261.901 130.995 262.313C113.277 262.412 95.0817 261.341 77.1993 263.961C64.0141 265.049 58.0643 278.119 69.7991 286.294C105.004 307.472 225.533 329.03 246.497 372.311C273.593 428.348 179.83 476.144 131.852 476.754C131.544 476.758 131.251 476.883 131.035 477.102C130.819 477.321 130.698 477.616 130.698 477.924C130.698 478.361 130.872 478.78 131.181 479.089C131.49 479.398 131.909 479.572 132.346 479.572C194.086 482.308 304.512 415.294 247.964 353.324C217.852 320.361 144.592 307.72 97.6364 284.217C95.0982 282.948 87.2859 278.63 98.823 279.141C147.888 281.366 197.349 284.827 246.448 279.454C291.261 273.29 273.593 241.365 245.261 226.004C194.168 194.278 124.946 170.561 71.2495 142.559C62.7121 138.109 61.3605 133.939 72.6339 133.708C182.137 131.533 283.366 120.16 328.707 33.8633C326.614 56.9374 332.003 83.7528 350.363 99.3772C350.363 99.3772 351.056 100.135 351.764 99.6739C352.473 99.2124 352.044 98.3224 352.044 98.3224C342.073 67.7328 346.952 30.3363 348.072 7.46001ZM78.6497 273.043C78.5178 272.762 78.5178 272.861 78.6497 273.043V273.043ZM253.765 255.704C253.947 255.506 253.947 255.572 253.765 255.704V255.704Z" fill="#231F20"/>
<path d="M179.928 443.577C203.316 428.661 229.373 405.125 226.406 375.211C226.39 375.144 226.4 375.072 226.433 375.011C226.467 374.95 226.522 374.904 226.588 374.882C226.653 374.859 226.725 374.862 226.789 374.889C226.853 374.916 226.905 374.967 226.934 375.03C242.426 404.482 209.298 439.901 180.126 444.104C180.056 444.13 179.979 444.127 179.911 444.097C179.843 444.066 179.79 444.009 179.764 443.939C179.737 443.869 179.74 443.792 179.771 443.724C179.802 443.656 179.858 443.603 179.928 443.577Z" fill="#231F20"/>
<path d="M110.524 209.902C108.319 210.056 106.107 209.725 104.043 208.933C101.979 208.142 100.113 206.909 98.5753 205.32C98.4217 205.151 98.318 204.942 98.276 204.717C98.2339 204.492 98.255 204.26 98.337 204.047C98.419 203.833 98.5587 203.647 98.7404 203.508C98.9222 203.369 99.1389 203.283 99.3664 203.26C101.572 203.106 103.784 203.437 105.848 204.229C107.912 205.02 109.778 206.253 111.315 207.842C111.469 208.011 111.573 208.22 111.615 208.445C111.657 208.67 111.636 208.902 111.554 209.115C111.472 209.329 111.332 209.515 111.15 209.654C110.969 209.793 110.752 209.879 110.524 209.902Z" fill="#231F20"/>
<path d="M84.8466 198.876C53.5318 195.481 3.13148 178.851 0 143.63C0 143.505 0.0416928 143.384 0.118601 143.285C0.19551 143.187 0.303171 143.117 0.42441 143.086C0.54565 143.056 0.673544 143.067 0.787759 143.118C0.901974 143.169 0.995929 143.256 1.05474 143.366C14.4047 173.824 56.482 184.108 85.1103 197.755C85.2589 197.79 85.3876 197.883 85.4679 198.013C85.5483 198.142 85.5738 198.299 85.5388 198.447C85.5039 198.596 85.4113 198.725 85.2815 198.805C85.1517 198.885 84.9953 198.911 84.8466 198.876Z" fill="#231F20"/>
<path d="M216.22 86.4558C230.296 83.2145 243.747 77.6916 256.039 70.1061C256.125 70.049 256.23 70.0262 256.332 70.0423C256.434 70.0583 256.526 70.1121 256.59 70.1929C256.654 70.2737 256.686 70.3756 256.678 70.4786C256.671 70.5816 256.625 70.6781 256.55 70.7489C246.859 81.9893 231.119 88.1204 216.368 87.2304C215.858 87.2798 215.759 86.5546 216.22 86.4558Z" fill="#231F20"/>
</svg>
