<svg width="108" height="550" viewBox="0 0 108 550" fill="none" xmlns="http://www.w3.org/2000/svg">
<path d="M88.1724 93.8493C70.4548 69.671 62.0327 41.1086 55.3742 12.0682C52.2262 -1.67735 38.4477 -5.15494 32.3001 9.41469C30.4047 13.9141 30.3553 18.941 29.2181 23.6547C21.8014 61.0841 11.2698 97.8214 0.0788371 134.328C0.00487275 134.571 -0.0173504 134.828 0.0134503 135.081C0.0442511 135.333 0.127383 135.577 0.257695 135.796C0.388007 136.014 0.562533 136.203 0.770126 136.351C0.977719 136.498 1.21386 136.601 1.46333 136.652C1.89672 136.746 2.34895 136.695 2.75084 136.508C3.15273 136.32 3.48205 136.006 3.68829 135.613C10.2809 123.565 36.7337 82.1805 35.2009 53.3214C39.519 134.443 32.5473 203.929 33.6351 278.903C33.2066 368.76 30.4267 458.546 25.2955 548.26C25.2725 548.615 25.3887 548.965 25.6195 549.236C25.8503 549.507 26.1774 549.677 26.5316 549.711C26.839 549.743 27.147 549.655 27.3902 549.464C27.6333 549.273 27.7925 548.995 27.8337 548.689C40.3102 459.392 50.9078 369.585 53.3965 279.447C55.605 199.611 54.237 137.624 50.7759 68.4843C52.0615 94.0801 91.1721 114.781 104.604 122.016C105.044 122.254 105.551 122.335 106.043 122.245C106.535 122.155 106.981 121.9 107.307 121.522C107.761 120.981 108.009 120.299 108.009 119.593C108.009 118.888 107.761 118.205 107.307 117.665C100.649 109.606 93.9903 101.859 88.1724 93.8493Z" fill="#231F20"/>
<path d="M11.649 216.966C17.7763 268.252 16.4161 320.157 7.61099 371.051C7.59569 371.309 7.47855 371.551 7.28537 371.722C7.09219 371.894 6.8388 371.981 6.5809 371.966C6.323 371.951 6.08178 371.834 5.91023 371.641C5.73869 371.447 5.65089 371.194 5.66619 370.936C3.41746 319.587 4.76677 268.143 9.70417 216.982C9.70199 216.725 9.80231 216.476 9.98312 216.292C10.1639 216.109 10.4104 216.004 10.6683 216.002C10.9262 216 11.1744 216.1 11.3584 216.281C11.5423 216.462 11.6468 216.708 11.649 216.966Z" fill="#231F20"/>
<path d="M6.25937 383.198C7.65161 386.266 8.35544 389.601 8.32127 392.969C8.2871 396.337 7.51578 399.657 6.0616 402.696C5.9535 402.927 5.77447 403.118 5.55048 403.241C5.32649 403.364 5.06922 403.413 4.81583 403.38C4.56245 403.347 4.32619 403.234 4.14124 403.058C3.9563 402.881 3.83225 402.651 3.78715 402.399C2.9989 396.155 3.07657 389.833 4.01792 383.61C4.04383 383.355 4.15203 383.114 4.32624 382.925C4.50045 382.736 4.73131 382.609 4.98403 382.563C5.23675 382.516 5.49763 382.553 5.72763 382.668C5.95762 382.782 6.14423 382.968 6.25937 383.198Z" fill="#231F20"/>
</svg>
